<?xml version="1.0" ?><svg enable-background="new 0 0 512 512" id="Layer_1" version="1.1" viewBox="0 0 512 512" xml:space="preserve" xmlns="http://www.w3.org/2000/svg" xmlns:xlink="http://www.w3.org/1999/xlink"><g><g><linearGradient gradientUnits="userSpaceOnUse" id="SVGID_1_" x1="-0.0000027" x2="512" y1="256" y2="256"><stop offset="0" style="stop-color:#A364AB"/><stop offset="1" style="stop-color:#8C3D96"/></linearGradient><circle cx="256" cy="256" fill="url(#SVGID_1_)" r="256"/><linearGradient gradientUnits="userSpaceOnUse" id="SVGID_2_" x1="42.6666641" x2="469.3333435" y1="256.0005188" y2="256.0005188"><stop offset="0" style="stop-color:#8C3D96"/><stop offset="1" style="stop-color:#A364AB"/></linearGradient><path d="M256,469.3338623c-117.6315155,0-213.3333435-95.7018738-213.3333435-213.3333435    S138.3684845,42.6671982,256,42.6671982c117.6356812,0,213.3333435,95.7018661,213.3333435,213.333313    S373.6356812,469.3338623,256,469.3338623z" fill="url(#SVGID_2_)"/></g><g><path d="M236.0314178,288.514679c14.7786713,0,27.9216156-6.904541,36.4010773-17.6250916    c6.2384033-7.9343872,9.9941711-17.9279938,9.9941711-28.8303833c0-25.6197357-20.7755127-46.3952026-46.3952484-46.3952026    c-25.6810608,0-46.4554596,20.7754669-46.4554596,46.3952026c0,10.9023895,3.7546692,20.8959961,9.9935913,28.8303833    C208.0490265,281.6101379,221.2527618,288.514679,236.0314178,288.514679z" opacity="0.3"/><path d="M282.3604736,274.5610657c-0.6207886,0.8864136-1.2293091,1.778656-1.9034424,2.6373291    c-10.8981323,13.7727966-27.1813507,21.6575928-44.7023621,21.6575928c-17.5600433,0-33.8677826-7.8847961-44.7461853-21.6330566    c-0.6778107-0.8629456-1.2890625-1.7594604-1.9130554-2.6495972C162.5210266,286.3493347,144,312.8853455,144,343.8101196    v28.1989441h183.5066223v-28.1989441C327.5066223,312.8880005,308.9412842,286.305603,282.3604736,274.5610657z" opacity="0.3"/><path d="M292.7066345,241.8405304c0,2.6789398-0.2501526,5.3093414-0.6133423,7.9130707    c0.0517273,0.0005341,0.1013184,0.0090637,0.153595,0.0090637c14.9242554,0,28.1983948-6.9727936,36.762146-17.8000031    c6.3002625-8.0128021,10.0927734-18.1055908,10.0927734-29.1162567c0-25.8741455-20.9807739-46.8554688-46.8549194-46.8554688    c-20.1061401,0-37.1845398,12.6319885-43.8688049,30.354126    C273.7178345,192.1098633,292.7066345,214.7786713,292.7066345,241.8405304z" opacity="0.3"/><path d="M338.8533325,235.5664063c-0.6203003,0.8858643-1.2288513,1.7781219-1.9035034,2.636795    c-10.8981323,13.7722626-27.1813354,21.6581268-44.7018738,21.6581268c-0.8192139,0-1.6192017-0.1023865-2.4325256-0.1365356    c-0.6842651,2.0661316-1.46875,4.0981445-2.387207,6.0778809c27.1941223,12.4346619,45.7370605,38.0181274,49.4506531,67.211731    H384v-28.1989441C384,273.8933411,365.4346619,247.3109283,338.8533325,235.5664063z" opacity="0.3"/></g><g><path d="M228.0314178,280.514679c14.7786713,0,27.9216003-6.904541,36.4010773-17.6250916    c6.2384033-7.9343872,9.9941711-17.9279938,9.9941711-28.8303833c0-25.6197357-20.7755127-46.3952026-46.3952484-46.3952026    c-25.6810608,0-46.4554596,20.7754669-46.4554596,46.3952026c0,10.9023895,3.7546692,20.8959961,9.9935913,28.8303833    C200.0490265,273.6101379,213.2527618,280.514679,228.0314178,280.514679z" fill="#FFFFFF"/><path d="M274.3604736,266.5610657c-0.6207886,0.8864136-1.2293091,1.778656-1.9034424,2.6373291    c-10.8981323,13.7727966-27.1813507,21.6575928-44.7023621,21.6575928c-17.5600433,0-33.8677826-7.8847961-44.7461853-21.6330566    c-0.6778107-0.8629456-1.2890625-1.7594604-1.9130554-2.6495972C154.5210266,278.3493347,136,304.8853455,136,335.8101196    v28.1989441h183.5066223v-28.1989441C319.5066223,304.8880005,300.9412842,278.305603,274.3604736,266.5610657z" fill="#FFFFFF"/><path d="M284.7066345,233.8405304c0,2.6789398-0.2501526,5.3093414-0.6133423,7.9130707    c0.0517273,0.0005341,0.1013184,0.0090637,0.153595,0.0090637c14.9242554,0,28.1983948-6.9727936,36.762146-17.8000031    c6.3002625-8.0128021,10.0927734-18.1055908,10.0927734-29.1162567c0-25.8741455-20.9807739-46.8554688-46.8549194-46.8554688    c-20.1061401,0-37.1845398,12.6319885-43.8688049,30.354126    C265.7178345,184.1098633,284.7066345,206.7786713,284.7066345,233.8405304z" fill="#FFFFFF"/><path d="M330.8533325,227.5664063c-0.6203003,0.8858643-1.2288513,1.7781219-1.9035034,2.636795    c-10.8981323,13.7722626-27.1813354,21.6581268-44.7018738,21.6581268c-0.8192139,0-1.6192017-0.1024017-2.4325256-0.1365356    c-0.6842651,2.0661469-1.46875,4.0981445-2.387207,6.0778809c27.1941223,12.4346619,45.7370605,38.0181274,49.4506531,67.211731    H376v-28.1989441C376,265.8933411,357.4346619,239.3109283,330.8533325,227.5664063z" fill="#FFFFFF"/></g></g></svg>