<?xml version="1.0" ?><svg height="100px" id="Layer_1" style="enable-background:new 0 0 100 100;" version="1.1" viewBox="0 0 100 100" width="100px" xml:space="preserve" xmlns="http://www.w3.org/2000/svg" xmlns:xlink="http://www.w3.org/1999/xlink"><style type="text/css">
	.st0{fill:#E64C3C;}
	.st1{fill:#ECF0F1;}
</style><circle class="st0" cx="50" cy="50" id="XMLID_10_" r="50"/><polygon class="st1" id="XMLID_9_" points="24.4,68.6 24.4,23.3 22.8,23.3 22.8,68.6 22.8,70.1 24.4,70.1 82.9,70.1 82.9,68.6 "/><path class="st1" d="M36.7,64.4h-5.4c-0.6,0-1-0.4-1-1V38.2c0-0.6,0.4-1,1-1h5.4c0.6,0,1,0.4,1,1v25.2  C37.7,63.9,37.2,64.4,36.7,64.4z" id="XMLID_8_"/><path class="st1" d="M47.2,64.4h-5.4c-0.6,0-1-0.4-1-1V34.3c0-0.6,0.4-1,1-1h5.4c0.6,0,1,0.4,1,1v29.1  C48.2,63.9,47.7,64.4,47.2,64.4z" id="XMLID_5_"/><path class="st1" d="M57.7,64.4h-5.4c-0.6,0-1-0.4-1-1V42.9c0-0.6,0.4-1,1-1h5.4c0.6,0,1,0.4,1,1v20.5  C58.7,63.9,58.2,64.4,57.7,64.4z" id="XMLID_6_"/><path class="st1" d="M68.1,64.4h-5.4c-0.6,0-1-0.4-1-1V27.3c0-0.6,0.4-1,1-1h5.4c0.6,0,1,0.4,1,1v36.1  C69.1,63.9,68.7,64.4,68.1,64.4z" id="XMLID_7_"/></svg>