<?xml version="1.0" ?><!DOCTYPE svg  PUBLIC '-//W3C//DTD SVG 1.1//EN'  'http://www.w3.org/Graphics/SVG/1.1/DTD/svg11.dtd'><svg enable-background="new 0 0 48 48" height="48px" id="Layer_1" version="1.1" viewBox="0 0 48 48" width="48px" xml:space="preserve" xmlns="http://www.w3.org/2000/svg" xmlns:xlink="http://www.w3.org/1999/xlink"><g><path d="M24,0C10.746,0,0,10.745,0,24s10.745,24,24,24c13.255,0,24-10.745,24-24S37.256,0,24,0z M24.029,43.844   c-11.023,0-19.959-8.936-19.959-19.959S13.006,3.926,24.029,3.926c11.023,0,19.959,8.936,19.959,19.959   S35.053,43.844,24.029,43.844z" fill="#231F20"/><g><circle cx="16.301" cy="32.13" fill="#231F20" r="2.387"/><circle cx="28.646" cy="32.13" fill="#231F20" r="2.387"/><path d="M34.98,13.484h-2.156c-1.557,0-1.736,1.238-1.738,1.249l-0.047,0.427v-0.002l-0.514,2.26    c-0.113,0.34-0.455,0.885-1.514,0.885H11.27l3.128,10.041h16.956L32.857,20l0.434-2.039l0,0l0.029-0.135    c0.086-0.358,0.463-1.363,2.02-1.389h0.191c0.385-0.02,1.223-0.189,1.199-1.313v-0.188C36.73,13.438,34.98,13.484,34.98,13.484z" fill="#231F20"/></g></g></svg>